<svg xmlns="http://www.w3.org/2000/svg" id="logo-svg" viewBox="0 0 40.38 48.05"><defs><style>.cls-1{fill:000;}</style></defs><g id="Layer_2" data-name="Layer 2"><g id="Layer_1-2" data-name="Layer 1"><path class="cls-1" d="M20.19,30.75h0A5.77,5.77,0,0,1,26,36.52V48.05a0,0,0,0,1,0,0H14.42a0,0,0,0,1,0,0V36.52A5.77,5.77,0,0,1,20.19,30.75Z"/><rect class="cls-1" x="14.42" y="16.33" width="11.54" height="11.54" rx="5.77"/><rect class="cls-1" x="28.84" width="11.54" height="11.54" rx="5.77"/><rect class="cls-1" y="8.65" width="11.54" height="11.54" rx="5.77"/><path class="cls-1" d="M0,22.09H0A11.54,11.54,0,0,1,11.54,33.63V48.05a0,0,0,0,1,0,0h0A11.54,11.54,0,0,1,0,36.52V22.09a0,0,0,0,1,0,0Z"/><path class="cls-1" d="M40.38,13.44h0a0,0,0,0,1,0,0V36.52A11.54,11.54,0,0,1,28.84,48.05h0a0,0,0,0,1,0,0V25A11.54,11.54,0,0,1,40.38,13.44Z"/></g></g></svg>
