<svg xmlns="http://www.w3.org/2000/svg" viewBox="0 0 148.06 24.03"><g id="Layer_2" data-name="Layer 2"><g id="Layer_1-2" data-name="Layer 1"><path d="M23.77.48,21.1,23.54H13.61q-1-5.31-1.81-12.09-.36,2.91-1.67,12.09H2.68L0,.48H5.83l.63,8,.61,7.78q.33-6,1.66-15.83H15c.08.68.3,3.21.65,7.61l.66,8.77Q16.78,8.49,18,.48Z"/><path d="M30.54.48V5.67a5.21,5.21,0,0,1,1.6-1A5.1,5.1,0,0,1,34,4.3a4.26,4.26,0,0,1,2.57.77,3.08,3.08,0,0,1,1.3,1.77,18.8,18.8,0,0,1,.23,3.67v13H32.33V10.24a8.27,8.27,0,0,0-.16-2.12.79.79,0,0,0-1.45,0,6.67,6.67,0,0,0-.18,1.93V23.54H24.78V.48Z"/><path d="M53.1,14.43H45.65v4.09a4.67,4.67,0,0,0,.18,1.65.73.73,0,0,0,.71.37.88.88,0,0,0,.88-.49,5.38,5.38,0,0,0,.22-1.91V15.65H53.1v1.4a12.2,12.2,0,0,1-.23,2.69,5.34,5.34,0,0,1-1,2,5.08,5.08,0,0,1-2.06,1.6,7.88,7.88,0,0,1-3.12.53,9.1,9.1,0,0,1-3.22-.52,5,5,0,0,1-3.25-3.47,13.06,13.06,0,0,1-.3-3.21V11.17a9.45,9.45,0,0,1,.67-3.91,4.61,4.61,0,0,1,2.2-2.2,8.79,8.79,0,0,1,7.49.16,5,5,0,0,1,2.21,2.44,11.42,11.42,0,0,1,.64,4.26Zm-5.77-3.08V10a6.62,6.62,0,0,0-.16-1.89.61.61,0,0,0-.64-.43c-.4,0-.65.12-.74.36a7.39,7.39,0,0,0-.14,2v1.38Z"/><path d="M60.73,4.64,60.5,7.13A4.3,4.3,0,0,1,64.13,4.3V11a4.78,4.78,0,0,0-2.32.43,1.78,1.78,0,0,0-.91,1.19,21.87,21.87,0,0,0-.17,3.51v7.46H55V4.64Z"/><path d="M78.45,14.43H71v4.09a4.67,4.67,0,0,0,.18,1.65.74.74,0,0,0,.72.37.87.87,0,0,0,.87-.49A5.38,5.38,0,0,0,73,18.14V15.65h5.46v1.4a13,13,0,0,1-.22,2.69,5.53,5.53,0,0,1-1,2,5,5,0,0,1-2,1.6,8,8,0,0,1-3.13.53,9.1,9.1,0,0,1-3.22-.52,5,5,0,0,1-3.25-3.47,13.06,13.06,0,0,1-.3-3.21V11.17a9.45,9.45,0,0,1,.67-3.91,4.61,4.61,0,0,1,2.2-2.2,7.8,7.8,0,0,1,3.5-.76,7.89,7.89,0,0,1,4,.92,5,5,0,0,1,2.2,2.44,11.22,11.22,0,0,1,.64,4.26Zm-5.77-3.08V10a6.62,6.62,0,0,0-.16-1.89.61.61,0,0,0-.64-.43c-.4,0-.64.12-.74.36A7.89,7.89,0,0,0,71,10v1.38Z"/><path d="M97.72.48V5.1H94.16V23.54h-6V5.1H84.61V.48Z"/><path d="M111.93,11.28v4.63a18.8,18.8,0,0,1-.26,3.74,5.24,5.24,0,0,1-1.09,2.22,4.87,4.87,0,0,1-2.16,1.52,8.6,8.6,0,0,1-3,.49,10.78,10.78,0,0,1-3.23-.42,4.46,4.46,0,0,1-2.06-1.26,4.92,4.92,0,0,1-1-2.05,15.35,15.35,0,0,1-.32-3.61V11.69a11.8,11.8,0,0,1,.57-4.11,4.77,4.77,0,0,1,2-2.38,7.21,7.21,0,0,1,3.79-.9,8.59,8.59,0,0,1,3.33.58,5.19,5.19,0,0,1,3.17,3.41A11.58,11.58,0,0,1,111.93,11.28Zm-5.75-1.42A6.39,6.39,0,0,0,106,8a.64.64,0,0,0-.67-.38.66.66,0,0,0-.68.38,5.59,5.59,0,0,0-.17,1.83v8.53a5.33,5.33,0,0,0,.17,1.74.65.65,0,0,0,.67.41.66.66,0,0,0,.67-.37,4.78,4.78,0,0,0,.17-1.6Z"/><path d="M132.9,9h-6V6.88a10.63,10.63,0,0,0-.17-2.48.77.77,0,0,0-.81-.5.75.75,0,0,0-.76.43,7,7,0,0,0-.2,2.19V17.59a6.64,6.64,0,0,0,.2,2,.77.77,0,0,0,.8.49.88.88,0,0,0,.89-.55,6.45,6.45,0,0,0,.23-2.17V14.67h-1.21v-3.5h7V23.54h-3.77l-.56-1.65a4.17,4.17,0,0,1-1.54,1.6,4.36,4.36,0,0,1-2.21.54,5.68,5.68,0,0,1-2.82-.74,5.47,5.47,0,0,1-2-1.81,5.77,5.77,0,0,1-.85-2.27,26.44,26.44,0,0,1-.17-3.57V8.79a23.49,23.49,0,0,1,.35-4.8,4.91,4.91,0,0,1,2.05-2.74A7.15,7.15,0,0,1,125.73,0a8.11,8.11,0,0,1,4.37,1.08,5.11,5.11,0,0,1,2.27,2.57A13.72,13.72,0,0,1,132.9,8Z"/><path d="M148.06,11.28v4.63a19.8,19.8,0,0,1-.25,3.74,5.27,5.27,0,0,1-1.1,2.22,4.87,4.87,0,0,1-2.16,1.52,8.54,8.54,0,0,1-3,.49,10.85,10.85,0,0,1-3.24-.42,4.38,4.38,0,0,1-2-1.26,5.06,5.06,0,0,1-1.05-2.05,15.46,15.46,0,0,1-.31-3.61V11.69a12.08,12.08,0,0,1,.56-4.11A4.74,4.74,0,0,1,137.5,5.2a7.17,7.17,0,0,1,3.78-.9,8.55,8.55,0,0,1,3.33.58,5.2,5.2,0,0,1,2.14,1.5,5.3,5.3,0,0,1,1,1.91A12.15,12.15,0,0,1,148.06,11.28Zm-5.75-1.42A6,6,0,0,0,142.15,8a.63.63,0,0,0-.67-.38.66.66,0,0,0-.68.38,5.9,5.9,0,0,0-.17,1.83v8.53a5.63,5.63,0,0,0,.17,1.74.66.66,0,0,0,.67.41.68.68,0,0,0,.68-.37,5.18,5.18,0,0,0,.16-1.6Z"/></g></g></svg>